<?xml version="1.0" encoding="iso-8859-1"?>
<!-- Uploaded to: SVG Repo, www.svgrepo.com, Generator: SVG Repo Mixer Tools -->
<svg fill="#000000" height="800px" width="800px" version="1.1" id="Capa_1" xmlns="http://www.w3.org/2000/svg" xmlns:xlink="http://www.w3.org/1999/xlink" 
	 viewBox="0 0 58.035 58.035" xml:space="preserve">
<g>
	<g>
		<path d="M53,50.356v-16.5c0-10.201-8.302-18.5-18.506-18.5h-1.05l0.269-0.413c0.582-0.896,0.781-1.966,0.56-3.012
			c-0.221-1.047-0.836-1.945-1.732-2.527c-1.334-0.866-2.989-0.847-4.268-0.059l-0.959-1.661c-0.534-0.925-1.396-1.588-2.429-1.866
			c-1.031-0.279-2.113-0.138-3.038,0.397c-0.924,0.534-1.585,1.397-1.861,2.431c-0.276,1.033-0.134,2.113,0.4,3.039l2.135,3.697
			C12.773,15.896,5,23.986,5,33.856v16.5H0v2h58.035v-2L53,50.356L53,50.356z M7,33.856c0-9.098,7.404-16.5,16.506-16.5h0.731
			c0.357,0,0.688-0.19,0.866-0.5c0.179-0.31,0.179-0.69,0-1l-2.985-5.171c-0.268-0.464-0.339-1.004-0.201-1.523
			c0.139-0.517,0.469-0.948,0.93-1.215c0.462-0.266,1.001-0.335,1.518-0.197c0.518,0.139,0.949,0.471,1.217,0.935l1.565,2.71
			c0.166,0.287,0.462,0.473,0.792,0.497c0.343,0.027,0.651-0.116,0.856-0.374c0.646-0.813,1.787-1,2.656-0.435
			c0.448,0.291,0.755,0.739,0.866,1.263c0.11,0.524,0.011,1.06-0.281,1.509l-1.271,1.958c-0.199,0.308-0.215,0.7-0.04,1.022
			s0.513,0.523,0.879,0.523h2.892c9.102,0,16.506,7.402,16.506,16.5v16.5H7V33.856z"/>
		<path d="M36.274,45.395l-14-4c-0.525-0.152-1.084,0.155-1.236,0.687c-0.151,0.531,0.156,1.084,0.688,1.236l14,4
			c0.092,0.026,0.184,0.039,0.275,0.039c0.435,0,0.835-0.287,0.961-0.726C37.113,46.1,36.806,45.547,36.274,45.395z"/>
		<path d="M42,31.356h-6c-0.553,0-1,0.448-1,1v2c0,1.654,1.345,3,2.998,3h2.004c1.653,0,2.998-1.346,2.998-3v-2
			C43,31.804,42.553,31.356,42,31.356z M41,34.356c0,0.551-0.447,1-0.998,1h-2.004c-0.56,0-0.998-0.44-0.998-1v-1h4V34.356z"/>
		<path d="M22.914,33.87c0.004-0.311-0.137-0.606-0.381-0.799l-3.914-3.086c-0.434-0.341-1.062-0.268-1.404,0.166
			c-0.342,0.434-0.268,1.063,0.166,1.404l2.89,2.278l-2.868,2.135c-0.442,0.33-0.534,0.957-0.204,1.399
			c0.196,0.264,0.497,0.403,0.803,0.403c0.207,0,0.417-0.064,0.597-0.198l3.914-2.914C22.761,34.473,22.909,34.181,22.914,33.87z"/>
	</g>
</g>
</svg>